<svg xmlns="http://www.w3.org/2000/svg" xmlns:xlink="http://www.w3.org/1999/xlink" width="319" height="223" viewBox="0 0 319 223">
    <defs>
        <path id="a" d="M.24 49.262c0 26.925 21.949 48.752 49.024 48.752s49.024-21.827 49.024-48.752S76.339.51 49.264.51.24 22.337.24 49.262"/>
        <path id="c" d="M.24 49.262c0 26.925 21.949 48.752 49.024 48.752s49.024-21.827 49.024-48.752S76.339.51 49.264.51.24 22.337.24 49.262"/>
        <path id="e" d="M.24 49.262c0 26.925 21.949 48.752 49.024 48.752s49.024-21.827 49.024-48.752S76.339.51 49.264.51.24 22.337.24 49.262"/>
        <path id="g" d="M.24 49.262c0 26.925 21.949 48.752 49.024 48.752s49.024-21.827 49.024-48.752S76.339.51 49.264.51.24 22.337.24 49.262"/>
        <path id="i" d="M.24 49.262c0 26.925 21.949 48.752 49.024 48.752s49.024-21.827 49.024-48.752S76.339.51 49.264.51.24 22.337.24 49.262"/>
        <path id="k" d="M.24 49.262c0 26.925 21.949 48.752 49.024 48.752s49.024-21.827 49.024-48.752S76.339.51 49.264.51.24 22.337.24 49.262"/>
        <path id="m" d="M.24 49.262c0 26.925 21.949 48.752 49.024 48.752s49.024-21.827 49.024-48.752S76.339.51 49.264.51.24 22.337.24 49.262"/>
        <path id="o" d="M.24 49.262c0 26.925 21.949 48.752 49.024 48.752s49.024-21.827 49.024-48.752S76.339.51 49.264.51.24 22.337.24 49.262"/>
        <path id="q" d="M.24 49.262c0 26.925 21.949 48.752 49.024 48.752s49.024-21.827 49.024-48.752S76.339.51 49.264.51.24 22.337.24 49.262"/>
        <path id="s" d="M.24 49.262c0 26.925 21.949 48.752 49.024 48.752s49.024-21.827 49.024-48.752S76.339.51 49.264.51.24 22.337.24 49.262"/>
        <path id="u" d="M.24 49.262c0 26.925 21.949 48.752 49.024 48.752s49.024-21.827 49.024-48.752S76.339.51 49.264.51.24 22.337.24 49.262"/>
        <path id="w" d="M.24 49.262c0 26.925 21.949 48.752 49.024 48.752s49.024-21.827 49.024-48.752S76.339.51 49.264.51.24 22.337.24 49.262"/>
        <path id="y" d="M0 .49h98.196v97.042H0z"/>
        <path id="A" d="M49.481.56C22.236.56.149 22.389.149 49.313c0 26.926 22.087 48.753 49.332 48.753 27.246 0 49.332-21.827 49.332-48.753"/>
        <path id="C" d="M49.481.56C22.236.56.149 22.389.149 49.313c0 26.926 22.087 48.753 49.332 48.753 27.246 0 49.332-21.827 49.332-48.753C98.813 22.388 76.727.56 49.481.56z"/>
        <path id="E" d="M49.481.56C22.236.56.149 22.389.149 49.313c0 26.926 22.087 48.753 49.332 48.753 27.246 0 49.332-21.827 49.332-48.753C98.813 22.388 76.727.56 49.481.56z"/>
        <path id="G" d="M49.481.56C22.236.56.149 22.389.149 49.313c0 26.926 22.087 48.753 49.332 48.753 27.246 0 49.332-21.827 49.332-48.753"/>
        <path id="I" d="M49.481.56C22.236.56.149 22.389.149 49.313c0 26.926 22.087 48.753 49.332 48.753 27.246 0 49.332-21.827 49.332-48.753"/>
        <path id="K" d="M49.481.56C22.236.56.149 22.389.149 49.313c0 26.926 22.087 48.753 49.332 48.753 27.246 0 49.332-21.827 49.332-48.753"/>
        <path id="M" d="M49.481.56C22.236.56.149 22.389.149 49.313c0 26.926 22.087 48.753 49.332 48.753 27.246 0 49.332-21.827 49.332-48.753"/>
        <path id="O" d="M49.481.56C22.236.56.149 22.389.149 49.313c0 26.926 22.087 48.753 49.332 48.753 27.246 0 49.332-21.827 49.332-48.753"/>
        <path id="Q" d="M49.481.56C22.236.56.149 22.389.149 49.313c0 26.926 22.087 48.753 49.332 48.753 27.246 0 49.332-21.827 49.332-48.753"/>
        <path id="S" d="M49.481.56C22.236.56.149 22.389.149 49.313c0 26.926 22.087 48.753 49.332 48.753 27.246 0 49.332-21.827 49.332-48.753"/>
        <path id="U" d="M49.481.56C22.236.56.149 22.389.149 49.313c0 26.926 22.087 48.753 49.332 48.753 27.246 0 49.332-21.827 49.332-48.753"/>
        <path id="W" d="M49.481.56C22.236.56.149 22.389.149 49.313c0 26.926 22.087 48.753 49.332 48.753 27.246 0 49.332-21.827 49.332-48.753"/>
        <path id="Y" d="M49.481.56C22.236.56.149 22.389.149 49.313c0 26.926 22.087 48.753 49.332 48.753 27.246 0 49.332-21.827 49.332-48.753C98.813 22.388 76.727.56 49.481.56z"/>
        <path id="aa" d="M49.481.56C22.236.56.149 22.389.149 49.313c0 26.926 22.087 48.753 49.332 48.753 27.246 0 49.332-21.827 49.332-48.753"/>
        <path id="ac" d="M49.481.56C22.236.56.149 22.389.149 49.313c0 26.926 22.087 48.753 49.332 48.753 27.246 0 49.332-21.827 49.332-48.753"/>
        <path id="ae" d="M.063 49.19c0 26.926 21.886 48.753 48.884 48.753S97.83 76.116 97.83 49.191 75.945.439 48.947.439.063 22.266.063 49.19"/>
        <path id="ag" d="M.063 49.19c0 26.926 21.886 48.753 48.884 48.753S97.83 76.116 97.83 49.191 75.945.439 48.947.439.063 22.266.063 49.19"/>
        <path id="ai" d="M.063 49.19c0 26.926 21.886 48.753 48.884 48.753S97.83 76.116 97.83 49.191 75.945.439 48.947.439.063 22.266.063 49.19z"/>
        <path id="ak" d="M.063 49.19c0 26.926 21.886 48.753 48.884 48.753S97.83 76.116 97.83 49.191 75.945.439 48.947.439.063 22.266.063 49.19"/>
        <path id="am" d="M.063 49.19c0 26.926 21.886 48.753 48.884 48.753S97.83 76.116 97.83 49.191 75.945.439 48.947.439.063 22.266.063 49.19"/>
        <path id="ao" d="M.063 49.19c0 26.926 21.886 48.753 48.884 48.753S97.83 76.116 97.83 49.191 75.945.439 48.947.439.063 22.266.063 49.19"/>
        <path id="aq" d="M.063 49.19c0 26.926 21.886 48.753 48.884 48.753S97.83 76.116 97.83 49.191 75.945.439 48.947.439.063 22.266.063 49.19"/>
        <path id="as" d="M.063 49.19c0 26.926 21.886 48.753 48.884 48.753S97.83 76.116 97.83 49.191 75.945.439 48.947.439.063 22.266.063 49.19"/>
        <path id="au" d="M.063 49.19c0 26.926 21.886 48.753 48.884 48.753S97.83 76.116 97.83 49.191 75.945.439 48.947.439.063 22.266.063 49.19"/>
        <path id="aw" d="M.063 49.19c0 26.926 21.886 48.753 48.884 48.753S97.83 76.116 97.83 49.191 75.945.439 48.947.439.063 22.266.063 49.19"/>
        <path id="ay" d="M.063 49.19c0 26.926 21.886 48.753 48.884 48.753S97.83 76.116 97.83 49.191 75.945.439 48.947.439.063 22.266.063 49.19"/>
        <path id="aA" d="M.063 49.19c0 26.926 21.886 48.753 48.884 48.753S97.83 76.116 97.83 49.191 75.945.439 48.947.439.063 22.266.063 49.19"/>
    </defs>
    <g fill="none" fill-rule="evenodd">
        <path fill="#F8F8F9" d="M108.168 163.998c-6.935 25.884-33.658 41.214-59.687 34.24-26.028-6.975-41.506-33.612-34.57-59.497 6.935-25.884 33.658-41.213 59.687-34.239 26.028 6.975 41.506 33.612 34.57 59.496"/>
        <g transform="rotate(15 -332.074 145.15)">
            <mask id="b" fill="#fff">
                <use xlink:href="#a"/>
            </mask>
            <path fill="#FBC32F" d="M63.919 103h-29.31c-4.586 0-8.304-3.698-8.304-8.258V82.27c0-4.56 3.718-8.258 8.304-8.258h29.31c4.586 0 8.304 3.698 8.304 8.258v12.47c0 4.561-3.718 8.258-8.304 8.258" mask="url(#b)"/>
        </g>
        <g transform="rotate(15 -332.074 145.15)">
            <mask id="d" fill="#fff">
                <use xlink:href="#c"/>
            </mask>
            <path fill="#8C6144" d="M45.735 66.874h7.058c2.234 0 4.044 1.8 4.044 4.022v13.589c0 2.22-1.81 4.021-4.044 4.021h-7.058c-2.234 0-4.044-1.8-4.044-4.021v-13.59c0-2.22 1.81-4.02 4.044-4.02" mask="url(#d)"/>
        </g>
        <g transform="rotate(15 -332.074 145.15)">
            <mask id="f" fill="#fff">
                <use xlink:href="#e"/>
            </mask>
            <path fill="#8C6144" d="M30.281 54.24c0 3.346-2.727 6.058-6.09 6.058-3.364 0-6.091-2.712-6.091-6.057s2.727-6.057 6.09-6.057c3.364 0 6.091 2.712 6.091 6.057" mask="url(#f)"/>
        </g>
        <g transform="rotate(15 -332.074 145.15)">
            <mask id="h" fill="#fff">
                <use xlink:href="#g"/>
            </mask>
            <path fill="#8C6144" d="M80.157 55.319c0 3.345-2.727 6.057-6.09 6.057-3.365 0-6.092-2.712-6.092-6.057s2.727-6.057 6.091-6.057c3.364 0 6.09 2.712 6.09 6.057" mask="url(#h)"/>
        </g>
        <g transform="rotate(15 -332.074 145.15)">
            <mask id="j" fill="#fff">
                <use xlink:href="#i"/>
            </mask>
            <path fill="#B07D55" d="M77.053 51.167c0 15.262-12.442 27.634-27.79 27.634-15.347 0-27.788-12.372-27.788-27.634 0-15.263 12.441-27.635 27.789-27.635 15.347 0 27.789 12.372 27.789 27.635" mask="url(#j)"/>
        </g>
        <g transform="rotate(15 -332.074 145.15)">
            <mask id="l" fill="#fff">
                <use xlink:href="#k"/>
            </mask>
            <path fill="#010202" d="M39.018 53.412c0 2.193-1.787 3.97-3.992 3.97s-3.992-1.777-3.992-3.97c0-2.192 1.787-3.97 3.992-3.97s3.992 1.778 3.992 3.97" mask="url(#l)"/>
        </g>
        <g transform="rotate(15 -332.074 145.15)">
            <mask id="n" fill="#fff">
                <use xlink:href="#m"/>
            </mask>
            <path fill="#010202" d="M67.494 53.412c0 2.193-1.787 3.97-3.992 3.97s-3.992-1.777-3.992-3.97c0-2.192 1.787-3.97 3.992-3.97s3.992 1.778 3.992 3.97" mask="url(#n)"/>
        </g>
        <g transform="rotate(15 -332.074 145.15)">
            <mask id="p" fill="#fff">
                <use xlink:href="#o"/>
            </mask>
            <path fill="#8C6144" d="M50.84 59.419h-3.17c-1.16 0-2.1-.935-2.1-2.089v-8.242c0-1.154.94-2.089 2.1-2.089h3.17c1.16 0 2.1.935 2.1 2.089v8.242c0 1.154-.94 2.089-2.1 2.089" mask="url(#p)"/>
        </g>
        <g transform="rotate(15 -332.074 145.15)">
            <mask id="r" fill="#fff">
                <use xlink:href="#q"/>
            </mask>
            <path fill="#111D2A" d="M73.25 29.654s5.916 1.816 6.357 14.333c.44 12.518-.252 16.9-1.763 16.711-1.51-.187-1.35-6.634-1.35-6.634s-3.244.939-4-6.822c-.754-7.761.63-10.14-.63-10.203-1.257-.062-8.684.627-9.565-.062-.881-.688 5.916-8.136 6.105-8.074.189.063 4.846.751 4.846.751" mask="url(#r)"/>
        </g>
        <g transform="rotate(15 -332.074 145.15)">
            <mask id="t" fill="#fff">
                <use xlink:href="#s"/>
            </mask>
            <path fill="#111D2A" d="M25.206 28.75s-5.916 1.815-6.357 14.332c-.44 12.518.252 16.9 1.763 16.711 1.51-.187 1.35-6.634 1.35-6.634s3.244.94 4-6.822c.755-7.761-.63-10.14.63-10.202 1.258-.063 8.684.626 9.566-.063.88-.688-5.917-8.136-6.105-8.073-.19.062-4.847.75-4.847.75" mask="url(#t)"/>
        </g>
        <g transform="rotate(15 -332.074 145.15)">
            <mask id="v" fill="#fff">
                <use xlink:href="#u"/>
            </mask>
            <path fill="#010202" d="M52.809 15.93S26.862 13.653 23.81 26.302C20.757 38.95 43.905 38.95 61.203 37.432c17.298-1.518 21.114-12.395 17.044-20.49-4.07-8.095-12.465-10.625-13.482-10.12-1.018.507.254 6.073.254 6.073s-6.868-4.048-7.123-3.29c-.254.759-1.274 6.48-5.087 6.325" mask="url(#v)"/>
        </g>
        <g transform="rotate(15 -332.074 145.15)">
            <mask id="x" fill="#fff">
                <use xlink:href="#w"/>
            </mask>
            <path fill="#CA583C" d="M42.929 63.793H55.58s-1.62 6.542-6.325 6.542c-4.707 0-6.326-6.542-6.326-6.542" mask="url(#x)"/>
        </g>
        <g>
            <g transform="translate(110.527 .668)">
                <mask id="z" fill="#fff">
                    <use xlink:href="#y"/>
                </mask>
                <path fill="#F8F8F9" d="M98.196 49.01c0 26.798-21.982 48.522-49.098 48.522S0 75.808 0 49.01 21.982.49 49.098.49s49.098 21.724 49.098 48.52" mask="url(#z)"/>
            </g>
            <g transform="translate(110.527 .054)">
                <mask id="B" fill="#fff">
                    <use xlink:href="#A"/>
                </mask>
                <path fill="#F7AC82" d="M45.97 68.315h7.103c2.248 0 4.07 1.801 4.07 4.022v13.589c0 2.22-1.822 4.021-4.07 4.021H45.97c-2.247 0-4.07-1.8-4.07-4.021V72.337c0-2.22 1.823-4.022 4.07-4.022" mask="url(#B)"/>
            </g>
            <g transform="translate(110.527 .054)">
                <mask id="D" fill="#fff">
                    <use xlink:href="#C"/>
                </mask>
                <path fill="#162846" d="M19.932 44.768s-1.258 50.68-2.103 50.958c-.844.278 19.137-3.059 25.328-1.669 6.19 1.391 15.717-6.396 15.717-6.396l7.434-24.321-1.372-14.505-17.014-17.898-27.99 13.83z" mask="url(#D)"/>
            </g>
            <g transform="translate(110.527 .054)">
                <mask id="F" fill="#fff">
                    <use xlink:href="#E"/>
                </mask>
                <path fill="#162846" d="M79.266 45.477s1.258 50.68 2.103 50.958c.844.278-19.136-3.059-25.328-1.668-6.19 1.39-15.718-6.397-15.718-6.397L32.89 64.05l1.372-14.505 17.014-17.898 27.99 13.83z" mask="url(#F)"/>
            </g>
            <g transform="translate(110.527 .054)">
                <mask id="H" fill="#fff">
                    <use xlink:href="#G"/>
                </mask>
                <path fill="#F05E2F" d="M64.269 104.44H34.775c-4.615 0-8.356-3.697-8.356-8.257v-12.47c0-4.561 3.74-8.259 8.356-8.259h29.494c4.614 0 8.356 3.698 8.356 8.258v12.471c0 4.56-3.742 8.258-8.356 8.258" mask="url(#H)"/>
            </g>
            <g transform="translate(110.527 .054)">
                <mask id="J" fill="#fff">
                    <use xlink:href="#I"/>
                </mask>
                <path fill="#F7AC82" d="M46.044 68.315h7.103c2.248 0 4.07 1.801 4.07 4.022v13.589c0 2.22-1.822 4.021-4.07 4.021h-7.103c-2.247 0-4.07-1.8-4.07-4.021V72.337c0-2.22 1.823-4.022 4.07-4.022" mask="url(#J)"/>
            </g>
            <g transform="translate(110.527 .054)">
                <mask id="L" fill="#fff">
                    <use xlink:href="#K"/>
                </mask>
                <path fill="#F7AC82" d="M29.986 59.552c0 3.345-2.744 6.057-6.13 6.057-3.384 0-6.128-2.712-6.128-6.057s2.744-6.057 6.129-6.057c3.385 0 6.129 2.712 6.129 6.057" mask="url(#L)"/>
            </g>
            <g transform="translate(110.527 .054)">
                <mask id="N" fill="#fff">
                    <use xlink:href="#M"/>
                </mask>
                <path fill="#F7AC82" d="M80.89 59.552c0 3.345-2.745 6.057-6.13 6.057s-6.129-2.712-6.129-6.057 2.744-6.057 6.13-6.057c3.384 0 6.128 2.712 6.128 6.057" mask="url(#N)"/>
            </g>
            <g transform="translate(110.527 .054)">
                <mask id="P" fill="#fff">
                    <use xlink:href="#O"/>
                </mask>
                <path fill="#FBCBA9" d="M77.486 52.608c0 15.262-12.52 27.634-27.964 27.634-15.444 0-27.964-12.372-27.964-27.634 0-15.263 12.52-27.635 27.964-27.635 15.444 0 27.964 12.372 27.964 27.635" mask="url(#P)"/>
            </g>
            <g transform="translate(110.527 .054)">
                <mask id="R" fill="#fff">
                    <use xlink:href="#Q"/>
                </mask>
                <path fill="#010202" d="M39.211 54.854c0 2.192-1.798 3.97-4.017 3.97-2.218 0-4.017-1.778-4.017-3.97s1.799-3.97 4.017-3.97c2.219 0 4.017 1.778 4.017 3.97" mask="url(#R)"/>
            </g>
            <g transform="translate(110.527 .054)">
                <mask id="T" fill="#fff">
                    <use xlink:href="#S"/>
                </mask>
                <path fill="#010202" d="M67.867 54.854c0 2.192-1.8 3.97-4.017 3.97-2.22 0-4.018-1.778-4.018-3.97s1.799-3.97 4.018-3.97c2.218 0 4.017 1.778 4.017 3.97" mask="url(#T)"/>
            </g>
            <g transform="translate(110.527 .054)">
                <mask id="V" fill="#fff">
                    <use xlink:href="#U"/>
                </mask>
                <path fill="#F7AC82" d="M49.512 60.86c-2.048 0-3.708-1.641-3.708-3.665h7.416c0 2.024-1.66 3.665-3.708 3.665" mask="url(#V)"/>
            </g>
            <g transform="translate(110.527 .054)">
                <mask id="X" fill="#fff">
                    <use xlink:href="#W"/>
                </mask>
                <path fill="#CA583C" d="M43.146 65.234h12.731s-1.629 6.542-6.365 6.542c-4.736 0-6.366-6.542-6.366-6.542" mask="url(#X)"/>
            </g>
            <g transform="translate(110.527 .054)">
                <mask id="Z" fill="#fff">
                    <use xlink:href="#Y"/>
                </mask>
                <path fill="#E12A37" d="M19.703 46.001S18.609 18.98 48.869 18.98s30.624 27.021 30.624 27.021h-59.79z" mask="url(#Z)"/>
            </g>
            <g transform="translate(110.527 .054)">
                <mask id="ab" fill="#fff">
                    <use xlink:href="#aa"/>
                </mask>
                <path fill="#C42026" d="M53.059 18.44c0 1.89-1.551 3.422-3.463 3.422-1.913 0-3.464-1.532-3.464-3.423 0-1.89 1.55-3.422 3.464-3.422 1.912 0 3.463 1.532 3.463 3.422" mask="url(#ab)"/>
            </g>
            <g transform="translate(110.527 .054)">
                <mask id="ad" fill="#fff">
                    <use xlink:href="#ac"/>
                </mask>
                <path fill="#C42026" d="M79.49 46.001s-27.598 6.518-59.79 0c0 0 28.48-12.179 59.79 0" mask="url(#ad)"/>
            </g>
        </g>
        <g>
            <path fill="#F8F8F9" d="M293.008 131.388c13.398 23.207 5.397 52.912-17.873 66.347-23.27 13.435-52.996 5.512-66.395-17.695-13.398-23.207-5.397-52.911 17.873-66.346 23.27-13.435 52.996-5.513 66.395 17.694"/>
            <path fill="#8C6144" d="M237.605 173.592c1.673 2.897.674 6.605-2.231 8.282-2.905 1.677-6.616.688-8.288-2.208-1.672-2.897-.673-6.605 2.231-8.282 2.905-1.678 6.616-.689 8.288 2.208"/>
            <g>
                <g transform="rotate(-30 348.874 -274.99)">
                    <mask id="af" fill="#fff">
                        <use xlink:href="#ae"/>
                    </mask>
                    <path fill="#F0624A" d="M63.274 103.826H34.05c-4.574 0-8.28-3.697-8.28-8.257V83.098c0-4.561 3.706-8.258 8.28-8.258h29.225c4.573 0 8.28 3.697 8.28 8.258v12.47c0 4.56-3.707 8.258-8.28 8.258" mask="url(#af)"/>
                </g>
                <g transform="rotate(-30 348.874 -274.99)">
                    <mask id="ah" fill="#fff">
                        <use xlink:href="#ag"/>
                    </mask>
                    <path fill="#8C6144" d="M45.142 67.701h7.039c2.227 0 4.032 1.8 4.032 4.022v13.589a4.027 4.027 0 0 1-4.032 4.021h-7.039a4.027 4.027 0 0 1-4.032-4.021v-13.59a4.027 4.027 0 0 1 4.032-4.02" mask="url(#ah)"/>
                </g>
                <g transform="rotate(-30 348.874 -274.99)">
                    <mask id="aj" fill="#fff">
                        <use xlink:href="#ai"/>
                    </mask>
                    <path stroke="#FEFEFE" stroke-width="2.158" d="M45.142 67.701h7.039c2.227 0 4.032 1.8 4.032 4.022v13.589a4.027 4.027 0 0 1-4.032 4.021h-7.039a4.027 4.027 0 0 1-4.032-4.021v-13.59a4.027 4.027 0 0 1 4.032-4.02z" mask="url(#aj)"/>
                </g>
                <g transform="rotate(-30 348.874 -274.99)">
                    <mask id="al" fill="#fff">
                        <use xlink:href="#ak"/>
                    </mask>
                    <path fill="#703E3E" d="M67.597 55.205h-37.3c-6.467 0-11.71-5.229-11.71-11.677V25.894c0-6.449 5.243-11.677 11.71-11.677h37.3c6.467 0 11.709 5.228 11.709 11.677v17.634c0 6.448-5.242 11.677-11.709 11.677" mask="url(#al)"/>
                </g>
                <g transform="rotate(-30 348.874 -274.99)">
                    <mask id="an" fill="#fff">
                        <use xlink:href="#am"/>
                    </mask>
                    <path fill="#8C6144" d="M80.928 57.86c0 3.344-2.72 6.056-6.073 6.056-3.355 0-6.074-2.712-6.074-6.057s2.72-6.056 6.074-6.056c3.354 0 6.073 2.711 6.073 6.056" mask="url(#an)"/>
                </g>
                <g transform="rotate(-30 348.874 -274.99)">
                    <mask id="ap" fill="#fff">
                        <use xlink:href="#ao"/>
                    </mask>
                    <path fill="#B07D55" d="M76.371 51.994c0 15.262-12.406 27.634-27.71 27.634-15.303 0-27.71-12.372-27.71-27.634 0-15.263 12.407-27.635 27.71-27.635 15.304 0 27.71 12.372 27.71 27.635" mask="url(#ap)"/>
                </g>
                <g transform="rotate(-30 348.874 -274.99)">
                    <mask id="ar" fill="#fff">
                        <use xlink:href="#aq"/>
                    </mask>
                    <path fill="#703E3E" d="M37.316 43.307h-6.181a1.145 1.145 0 0 1-1.147-1.143v-1.728c0-.632.514-1.143 1.147-1.143h6.18c.634 0 1.148.511 1.148 1.143v1.728c0 .631-.514 1.143-1.147 1.143" mask="url(#ar)"/>
                </g>
                <g transform="rotate(-30 348.874 -274.99)">
                    <mask id="at" fill="#fff">
                        <use xlink:href="#as"/>
                    </mask>
                    <path fill="#703E3E" d="M65.95 43.307h-6.182a1.145 1.145 0 0 1-1.147-1.143v-1.728c0-.632.514-1.143 1.147-1.143h6.181c.634 0 1.147.511 1.147 1.143v1.728c0 .631-.513 1.143-1.147 1.143" mask="url(#at)"/>
                </g>
                <g transform="rotate(-30 348.874 -274.99)">
                    <mask id="av" fill="#fff">
                        <use xlink:href="#au"/>
                    </mask>
                    <path fill="#010202" d="M38.445 54.24a3.976 3.976 0 0 1-3.98 3.97 3.976 3.976 0 0 1-3.982-3.97 3.975 3.975 0 0 1 3.981-3.97 3.975 3.975 0 0 1 3.98 3.97" mask="url(#av)"/>
                </g>
                <g transform="rotate(-30 348.874 -274.99)">
                    <mask id="ax" fill="#fff">
                        <use xlink:href="#aw"/>
                    </mask>
                    <path fill="#010202" d="M66.84 54.24a3.976 3.976 0 0 1-3.981 3.97 3.976 3.976 0 0 1-3.98-3.97 3.975 3.975 0 0 1 3.98-3.97 3.976 3.976 0 0 1 3.98 3.97" mask="url(#ax)"/>
                </g>
                <g transform="rotate(-30 348.874 -274.99)">
                    <mask id="az" fill="#fff">
                        <use xlink:href="#ay"/>
                    </mask>
                    <path fill="#8C6144" d="M50.233 60.245H47.07a2.09 2.09 0 0 1-2.093-2.088v-8.242a2.09 2.09 0 0 1 2.093-2.089h3.162a2.09 2.09 0 0 1 2.093 2.089v8.242a2.09 2.09 0 0 1-2.093 2.088" mask="url(#az)"/>
                </g>
                <g transform="rotate(-30 348.874 -274.99)">
                    <mask id="aB" fill="#fff">
                        <use xlink:href="#aA"/>
                    </mask>
                    <path fill="#CA583C" d="M42.344 64.62h12.615s-1.614 6.542-6.307 6.542c-4.693 0-6.308-6.542-6.308-6.542" mask="url(#aB)"/>
                </g>
            </g>
        </g>
        <g fill="#67C23A" fill-rule="nonzero">
            <path d="M148.405 139.02c-.597 0-1.082.489-1.082 1.09v32.699c0 .602.485 1.09 1.082 1.09.598 0 1.083-.488 1.083-1.09V140.11c0-.602-.485-1.09-1.083-1.09zm15.154 4.905c-.598 0-1.082.488-1.082 1.09v22.889c0 .602.484 1.09 1.082 1.09.598 0 1.082-.488 1.082-1.09v-22.889c0-.602-.484-1.09-1.082-1.09zm-18.942 1.635c-.598 0-1.082.488-1.082 1.09v19.62c0 .601.484 1.089 1.082 1.089.598 0 1.082-.488 1.082-1.09V146.65c0-.602-.484-1.09-1.082-1.09zm7.577 0c-.598 0-1.083.488-1.083 1.09v19.62c0 .601.485 1.089 1.083 1.089s1.082-.488 1.082-1.09V146.65c0-.602-.484-1.09-1.082-1.09zm7.577 1.09c-.598 0-1.083.488-1.083 1.09v17.44c0 .601.485 1.09 1.083 1.09.597 0 1.082-.489 1.082-1.09v-17.44c0-.602-.485-1.09-1.082-1.09zm7.576 0c-.597 0-1.082.488-1.082 1.09v16.35c0 .601.485 1.09 1.082 1.09.598 0 1.083-.489 1.083-1.09v-16.35c0-.602-.485-1.09-1.083-1.09zm-26.518 1.635c-.598 0-1.083.488-1.083 1.09v14.17c0 .601.485 1.09 1.083 1.09s1.082-.489 1.082-1.09v-14.17c0-.602-.484-1.09-1.082-1.09zm15.153 0c-.598 0-1.082.488-1.082 1.09v14.17c0 .601.484 1.09 1.082 1.09.598 0 1.083-.489 1.083-1.09v-14.17c0-.602-.485-1.09-1.083-1.09zm15.154.545c-.598 0-1.083.488-1.083 1.09V163c0 .601.485 1.09 1.083 1.09s1.082-.489 1.082-1.09v-13.08c0-.602-.484-1.09-1.082-1.09zm-34.096 1.09c-.597 0-1.082.488-1.082 1.09v10.9c0 .601.485 1.09 1.082 1.09.598 0 1.083-.489 1.083-1.09v-10.9c0-.602-.485-1.09-1.083-1.09zm37.884.545c-.598 0-1.082.488-1.082 1.09v9.81c0 .601.484 1.09 1.082 1.09.598 0 1.083-.489 1.083-1.09v-9.81c0-.602-.485-1.09-1.083-1.09zm3.789 1.09c-.598 0-1.083.488-1.083 1.09v7.63c0 .601.485 1.09 1.083 1.09.597 0 1.082-.489 1.082-1.09v-7.63c0-.602-.485-1.09-1.082-1.09zm3.247 1.09c-.598 0-1.083.488-1.083 1.09v5.45c0 .601.485 1.09 1.083 1.09.597 0 1.082-.489 1.082-1.09v-5.45c0-.602-.485-1.09-1.082-1.09z"/>
        </g>
    </g>
</svg>
