<svg xmlns="http://www.w3.org/2000/svg" width="194" height="62" viewBox="0 0 194 62">
    <defs>
        <linearGradient id="a" x1="0%" y1="50%" y2="50%">
            <stop offset="0%" stop-color="#BB9BF1"/>
            <stop offset="100%" stop-color="#887BF2"/>
        </linearGradient>
    </defs>
    <path fill="url(#a)" fill-rule="evenodd" d="M1.69 47.827c-.823 0-1.387-.022-1.69-.065.303-2.502 1.637-8.856 4-19.06C5.575 21.9 6.958 13.178 8.148 2.536c5.94-1.122 8.24-.982 14.874-.982 7.978 0 11.967 3.128 11.967 9.384 0 3.064-.77 5.857-2.309 8.381-1.539 2.524-3.934 4.498-7.186 5.922 2.428 8.068 4.509 13.289 6.243 15.662.78.992 1.388 1.488 1.821 1.488.78 0 1.995-.388 3.642-1.165l.78-.388 1.496 2.395c-1.604 1.467-3.457 2.675-5.56 3.624-2.103.95-4.076 1.424-5.918 1.424-1.843 0-3.36-.788-4.553-2.362-1.192-1.575-2.276-3.894-3.252-6.958-.975-3.063-1.961-6.99-2.959-11.778-1.387.086-2.45.13-3.186.13-2.212 9.448-3.426 15.833-3.642 19.156-1.865.906-4.77 1.359-8.715 1.359zM21.84 5.32c-3.745 0-6.795 3.072-6.795 6.844 0 3.773 3.05 6.844 6.795 6.844s6.795-3.071 6.795-6.844c0-3.772-3.05-6.844-6.795-6.844zM19.37 7.15v.661h-.618v-.301c.198-.134.402-.252.617-.36zm4.941 0c.216.108.42.226.618.36v.301h-.618v-.661zm-3.706.039h.617v.622h-.617v-.622zm1.853 0h.618v.622h-.618v-.622zm-5.25 1.866h.308v.623h-.656c.105-.214.217-.426.347-.623zm1.544 0h.617v.623h-.617v-.623zm1.853 0h.617v.623h-.617v-.623zm1.853 0h.618v.623h-.618v-.623zm1.853 0h.618v.623h-.618v-.623zm1.853 0h.309c.13.197.243.41.347.623h-.656v-.623zM16.9 10.921h.617v.622H16.9v-.622zm1.853 0h.617v.622h-.617v-.622zm1.853 0h.617v.622h-.617v-.622zm1.853 0h.618v.622h-.618v-.622zm1.853 0h.618v.622h-.618v-.622zm1.853 0h.618v.622h-.618v-.622zM16.9 12.787h.617v.623H16.9v-.623zm1.853 0h.617v.623h-.617v-.623zm1.853 0h.617v.623h-.617v-.623zm1.853 0h.618v.623h-.618v-.623zm1.853 0h.618v.623h-.618v-.623zm1.853 0h.618v.623h-.618v-.623zm-9.304 1.867h.656v.622h-.299a5.567 5.567 0 0 1-.357-.622zm1.892 0h.617v.622h-.617v-.622zm1.853 0h.617v.622h-.617v-.622zm1.853 0h.618v.622h-.618v-.622zm1.853 0h.618v.622h-.618v-.622zm1.853 0h.656a5.567 5.567 0 0 1-.357.622h-.299v-.622zm-7.412 1.866h.617v.661a5.491 5.491 0 0 1-.617-.37v-.29zm1.853 0h.617v.622h-.617v-.622zm1.853 0h.618v.622h-.618v-.622zm1.853 0h.618v.292c-.2.134-.402.261-.618.37v-.662zm35.326 4.19c.087-.086.325-.647.716-1.683 2.037 0 4.769.604 8.194 1.812a89.46 89.46 0 0 0-2.601 11.229c-.65 3.905-.976 6.687-.976 8.348 0 1.662.174 2.492.52 2.492.26 0 1.214-.41 2.862-1.23l.78-.388 1.171 2.265c-.39.345-.9.777-1.528 1.295-.629.517-1.81 1.219-3.545 2.103-1.734.885-3.295 1.327-4.682 1.327-2.688 0-4.25-1.208-4.683-3.624-2.775 2.416-5.278 3.624-7.511 3.624-2.233 0-4.12-.863-5.658-2.589-1.54-1.726-2.31-4.444-2.31-8.154 0-5.782 1.193-10.345 3.578-13.688 2.384-3.344 5.268-5.016 8.65-5.016 2.427 0 4.769.626 7.023 1.877zm-7.414 22.069c1.04 0 2.211-.41 3.512-1.23a78.317 78.317 0 0 1 3.057-18.056c-1.3-.561-2.406-.842-3.317-.842-1.56 0-2.894 1.521-4 4.563-1.105 3.042-1.658 6.396-1.658 10.064 0 3.667.802 5.5 2.406 5.5zm50.077.776c-3.685 3.15-6.926 4.725-9.722 4.725-2.797 0-4.412-1.38-4.846-4.142a14.973 14.973 0 0 1-4.357 3.042c-1.604.733-3.013 1.1-4.227 1.1-2.081 0-3.859-.906-5.333-2.718-1.474-1.813-2.211-4.617-2.211-8.414 0-5.695 1.214-10.171 3.642-13.429 2.428-3.257 5.17-4.886 8.227-4.886 3.056 0 5.625.69 7.706 2.071 1.344-6.99 2.016-12.49 2.016-16.503l-.325-2.718C96.122.56 99.31 0 102.43 0c.347.733.52 1.575.52 2.524 0 3.15-.953 9.546-2.86 19.189-1.909 9.643-2.862 16.19-2.862 19.642 0 1.035.238 1.553.715 1.553.26 0 1.084-.41 2.471-1.23l.65-.388 1.236 2.265zM86.627 22.651c-1.518 0-2.83 1.489-3.935 4.466-1.105 2.977-1.658 5.922-1.658 8.834s.206 4.778.618 5.598c.412.82 1.03 1.23 1.853 1.23 1.431 0 2.84-.583 4.227-1.748.13-1.726 1.106-7.464 2.927-17.215-1.474-.776-2.818-1.165-4.032-1.165zm29.2 9.546c-1.17 4.423-1.755 7.313-1.755 8.673 0 1.359.195 2.038.585 2.038.26 0 1.257-.41 2.992-1.23l.78-.388 1.106 2.265c-.39.345-.91.777-1.561 1.295-.65.517-1.864 1.219-3.642 2.103-1.778.885-3.425 1.327-4.943 1.327-1.517 0-2.71-.464-3.577-1.392-.867-.927-1.3-2.179-1.3-3.753 0-1.575.542-4.38 1.625-8.414 1.084-4.034 1.626-6.655 1.626-7.863 0-1.812-.563-3.516-1.69-5.113l-.586-.776.065-.842c2.298-.647 6.027-.97 11.186-.97.564.647.846 1.876.846 3.689 0 1.812-.586 4.929-1.756 9.351zm15.089 16.083c-2.992 0-5.333-1.047-7.024-3.14-1.69-2.092-2.536-5.015-2.536-8.768 0-4.79 1.29-8.91 3.87-12.362 2.579-3.451 6.145-5.177 10.698-5.177l2.34.13c.738-.389 1.562-.583 2.472-.583 3.425 0 5.138 3.214 5.138 9.643a33.689 33.689 0 0 0 5.398-.712l1.04-.259.39 2.524c-1.43.604-3.36 1.144-5.787 1.618l-1.301.259c-.824 4.53-2.493 8.467-5.008 11.811-2.515 3.344-5.745 5.016-9.69 5.016zm3.512-5.566c1.82 0 3.457-1.165 4.91-3.495 1.452-2.33 2.46-4.789 3.024-7.378-4.64 0-6.959-1.725-6.959-5.177 0-1.38.282-2.675.846-3.883l.325-.647a1.454 1.454 0 0 0-.65-.13c-.26 0-.456.043-.586.13-1.084.69-2.103 2.308-3.056 4.853-.954 2.546-1.431 5.458-1.431 8.737 0 4.66 1.192 6.99 3.577 6.99zm15.316 4.077c-.976-.992-1.464-2.384-1.464-4.174 0-1.79 1.073-7.507 3.22-17.15 2.146-9.643 3.219-16.6 3.219-20.872l-.39-2.848C157.71.582 160.875 0 163.824 0c.433.604.65 1.661.65 3.171 0 3.452-1.095 10.129-3.284 20.03-2.19 9.902-3.285 15.662-3.285 17.28 0 1.618.196 2.427.586 2.427l4.552-1.618 1.17 2.265c-1.473 1.165-3.262 2.244-5.365 3.236-2.102.993-3.902 1.489-5.397 1.489-1.496 0-2.732-.496-3.707-1.489zm22.664 10.226c0 .82.466 1.23 1.399 1.23.932 0 1.983-.443 3.154-1.327 1.17-.885 2.146-2.32 2.926-4.304-2.08.388-3.848 1.014-5.3 1.877s-2.179 1.704-2.179 2.524zm-.975-9.255c-3.642 0-5.463-1.985-5.463-5.954 0-.95.433-3.689 1.3-8.22.868-4.53 1.301-8.305 1.301-11.325 0-.647-.086-1.251-.26-1.812 2.341-.906 5.55-1.36 9.625-1.36.217.605.325 1.64.325 3.107 0 1.467-.476 4.509-1.43 9.126-.954 4.616-1.431 7.593-1.431 8.93 0 1.338.564 2.007 1.69 2.007 1.345 0 2.97-.669 4.878-2.006.217-2.546 1.084-9.255 2.602-20.128 1.517-.604 4.249-.906 8.194-.906H194c-.824 3.236-1.626 7.896-2.406 13.98-.78 6.083-1.41 10.311-1.886 12.684-.91 4.746-2.59 8.618-5.04 11.617-2.45 2.999-5.648 4.498-9.593 4.498-1.561 0-2.981-.41-4.26-1.23-1.28-.82-1.919-1.876-1.919-3.17 0-1.727 1.063-3.301 3.187-4.725 2.125-1.424 4.986-2.524 8.585-3.3.39-1.9.693-3.733.91-5.502-3.512 2.46-6.893 3.689-10.145 3.689zm-64.02-37.158c0-1.424.596-2.675 1.788-3.754 1.193-1.078 2.57-1.617 4.13-1.617 1.561 0 2.775.431 3.642 1.294s1.3 1.995 1.3 3.398c0 1.402-.617 2.642-1.853 3.72-1.235 1.08-2.612 1.619-4.13 1.619-1.517 0-2.71-.42-3.576-1.262-.868-.842-1.301-1.974-1.301-3.398z"/>
</svg>
